HIERARCHY
ROOT root
{
	OFFSET 0.000000 0.000000 0.000000
	CHANNELS 6 Xposition Yposition Zposition Zrotation Yrotation Xrotation
	JOINT lhip
	{
		OFFSET 0.058581 -0.082280 -0.017664
		CHANNELS 3 Zrotation Yrotation Xrotation
		JOINT lknee
		{
			OFFSET 0.043451 -0.386469 0.008037
			CHANNELS 3 Zrotation Yrotation Xrotation
			JOINT lankle
			{
				OFFSET -0.014790 -0.426874 -0.037428
				CHANNELS 3 Zrotation Yrotation Xrotation
				JOINT ltoe
				{
					OFFSET 0.041054 -0.060286 0.122042
					CHANNELS 3 Zrotation Yrotation Xrotation
					End Site
					{
						OFFSET 0.000000 0.000000 0.000000
					}
				}
			}
		}
	}
	JOINT rhip
	{
		OFFSET -0.060310 -0.090513 -0.013543
		CHANNELS 3 Zrotation Yrotation Xrotation
		JOINT rknee
		{
			OFFSET -0.043257 -0.383688 -0.004843
			CHANNELS 3 Zrotation Yrotation Xrotation
			JOINT rankle
			{
				OFFSET 0.019056 -0.420046 -0.034562
				CHANNELS 3 Zrotation Yrotation Xrotation
				JOINT rtoe
				{
					OFFSET -0.034840 -0.062106 0.130323
					CHANNELS 3 Zrotation Yrotation Xrotation
					End Site
					{
						OFFSET 0.000000 0.000000 0.000000
					}
				}
			}
		}
	}
	JOINT lowerback
	{
		OFFSET 0.004439 0.124404 -0.038385
		CHANNELS 3 Zrotation Yrotation Xrotation
		JOINT upperback
		{
			OFFSET 0.004488 0.137956 0.026820
			CHANNELS 3 Zrotation Yrotation Xrotation
			JOINT chest
			{
				OFFSET -0.002265 0.056032 0.002855
				CHANNELS 3 Zrotation Yrotation Xrotation
				JOINT lowerneck
				{
					OFFSET -0.013390 0.211636 -0.033468
					CHANNELS 3 Zrotation Yrotation Xrotation
					JOINT upperneck
					{
						OFFSET 0.010113 0.088937 0.050410
						CHANNELS 3 Zrotation Yrotation Xrotation
						End Site
						{
							OFFSET 0.000000 0.000000 0.000000
						}
					}
				}
				JOINT lclavicle
				{
					OFFSET 0.071702 0.114000 -0.018898
					CHANNELS 3 Zrotation Yrotation Xrotation
					JOINT lshoulder
					{
						OFFSET 0.122921 0.045205 -0.019046
						CHANNELS 3 Zrotation Yrotation Xrotation
						JOINT lelbow
						{
							OFFSET 0.255332 -0.015649 -0.022946
							CHANNELS 3 Zrotation Yrotation Xrotation
							JOINT lwrist
							{
								OFFSET 0.265709 0.012698 -0.007375
								CHANNELS 3 Zrotation Yrotation Xrotation
								End Site
								{
									OFFSET 0.000000 0.000000 0.000000
								}
							}
						}
					}
				}
				JOINT rclavicle
				{
					OFFSET -0.082954 0.112472 -0.023707
					CHANNELS 3 Zrotation Yrotation Xrotation
					JOINT rshoulder
					{
						OFFSET -0.113228 0.046853 -0.008472
						CHANNELS 3 Zrotation Yrotation Xrotation
						JOINT relbow
						{
							OFFSET -0.260127 -0.014369 -0.031269
							CHANNELS 3 Zrotation Yrotation Xrotation
							JOINT rwrist
							{
								OFFSET -0.269108 0.006794 -0.006027
								CHANNELS 3 Zrotation Yrotation Xrotation
								End Site
								{
									OFFSET 0.000000 0.000000 0.000000
								}
							}
						}
					}
				}
			}
		}
	}
}
MOTION
Frames: 11
Frame Time: 0.033333
-1.442917 0.291154 0.980228 124.557816 -2.589726 89.553483 -0.171963 -8.177882 -3.212949 -2.986270 -15.563781 7.051092 2.023364 2.749035 -12.526952 0.000000 -0.000000 0.000000 -5.914966 -11.990655 -0.674933 -3.216975 -13.696977 17.569611 2.700710 -15.896698 -16.568770 0.000000 -0.000000 0.000000 1.207251 10.060472 5.284752 -3.380652 4.154156 1.396758 1.233597 3.093177 0.670757 -8.277461 36.453242 -6.655029 -4.746586 28.448989 2.238280 -19.196937 1.946303 -5.203060 -64.730644 -2.551943 8.406742 6.866661 -29.290622 21.107586 2.318101 0.709429 -0.969182 15.935111 -1.500514 4.503711 67.998766 4.657995 13.275310 -13.916429 29.610574 6.465626 -21.178270 0.088283 4.080390 
-1.442784 0.290855 0.980291 124.391728 -2.654283 89.695950 -0.212073 -8.448116 -3.318030 -2.946475 -15.329719 7.004099 1.933195 2.992643 -12.545577 0.000000 -0.000000 0.000000 -5.957070 -11.704155 -0.781654 -3.038584 -13.593800 17.388859 2.921802 -16.211308 -16.637024 0.000000 -0.000000 0.000000 1.132670 10.007402 4.938589 -3.313098 4.080221 1.722212 1.198441 3.061066 0.764220 -8.075361 36.747469 -6.927643 -4.619559 28.938077 3.521535 -19.428046 1.895764 -5.703077 -64.581348 -2.226361 8.793845 7.219791 -29.214988 20.926689 1.716625 0.815802 -1.347508 16.451433 -1.610742 3.864352 67.095931 4.321973 13.639434 -14.041068 29.586180 6.133940 -21.288166 -0.939485 3.338864 
-1.442253 0.290656 0.980212 124.121252 -2.690126 89.726186 -0.226366 -8.475989 -3.251130 -2.903448 -15.137726 6.893726 1.895900 3.096244 -12.548247 0.000000 -0.000000 0.000000 -5.982692 -11.556900 -0.810875 -2.991716 -13.543265 17.287359 3.003237 -16.177596 -16.651855 0.000000 -0.000000 0.000000 1.103813 10.000387 4.805903 -3.234716 4.069111 1.834820 1.141404 3.051397 0.783301 -7.895704 36.934976 -6.763151 -4.744818 29.056637 3.768801 -19.650963 1.835374 -5.790071 -64.344076 -2.178911 9.018902 7.366591 -28.992894 20.502043 1.455560 0.838571 -1.155882 16.865686 -1.702059 3.534185 66.412599 4.234375 13.546131 -14.488836 29.518316 4.789240 -20.363210 -1.437122 2.146854 
-1.441647 0.290406 0.980064 123.718066 -2.738945 89.797214 -0.244239 -8.502154 -3.185777 -2.868486 -14.943910 6.754994 1.874293 3.319683 -12.573746 0.000000 -0.000000 0.000000 -6.031969 -11.427921 -0.922556 -2.946903 -13.432029 17.252914 3.129503 -16.066363 -16.725561 0.000000 -0.000000 0.000000 0.974896 10.032476 4.570826 -3.115933 4.068978 1.893566 1.103152 3.088810 0.807848 -7.397650 37.171218 -6.240860 -4.892941 28.848583 3.833647 -19.705909 1.868458 -5.598373 -64.288826 -2.329561 9.287146 7.467479 -28.704720 20.239874 1.267873 0.939124 -1.208069 17.335739 -1.910650 3.329970 65.634786 4.235637 13.603370 -14.632724 29.240982 4.379856 -20.094200 -1.820923 1.692156 
-1.441192 0.290302 0.979986 123.523909 -2.744916 89.801232 -0.240277 -8.465898 -3.142537 -2.862186 -14.916185 6.718200 1.886752 3.447383 -12.614072 0.000000 -0.000000 0.000000 -6.035292 -11.387991 -0.933643 -2.905638 -13.298239 17.205382 3.178215 -16.068656 -16.736586 0.000000 -0.000000 0.000000 0.972734 9.999637 4.487508 -3.050973 4.052139 1.970102 1.096655 3.069797 0.812606 -7.369142 37.102426 -6.129128 -4.939440 28.807048 3.862991 -19.908185 1.912405 -5.555484 -64.089973 -2.388081 9.335157 7.411157 -28.580666 20.125508 1.211914 0.958334 -1.305066 17.663663 -1.983726 3.360636 65.112388 4.351712 13.608728 -14.716264 29.083491 4.386203 -20.072740 -1.851263 1.884312 
-1.440592 0.290176 0.979961 123.316851 -2.741868 89.734258 -0.262535 -8.398131 -3.062178 -2.836021 -14.959401 6.739492 1.841981 3.581417 -12.693003 0.000000 -0.000000 0.000000 -6.049305 -11.363661 -0.873215 -2.863940 -13.190255 17.138197 3.246879 -16.051594 -16.775884 0.000000 -0.000000 0.000000 1.008506 9.965952 4.486516 -2.986398 4.068152 2.024596 1.123611 2.980509 0.864572 -7.415028 37.029210 -6.089680 -5.031085 28.811571 3.975716 -20.208350 1.911913 -5.528292 -63.836474 -2.451551 9.381248 7.408287 -28.412791 19.893438 0.937035 0.857581 -1.063576 18.093227 -2.090495 3.216739 64.387322 4.398739 13.578413 -14.549048 28.961400 4.313619 -20.246459 -1.821414 2.168606 
-1.440160 0.290020 0.979970 123.153418 -2.752202 89.667561 -0.288758 -8.407201 -3.023986 -2.848132 -15.015346 6.822991 1.826922 3.744254 -12.764331 0.000000 -0.000000 0.000000 -6.083740 -11.318473 -0.840371 -2.826801 -13.115467 17.125329 3.303594 -16.046156 -16.818531 0.000000 -0.000000 0.000000 0.978748 9.942342 4.531618 -2.890127 4.052375 1.992198 1.157297 2.944670 0.940042 -7.329116 37.092295 -5.984063 -5.154081 28.708665 4.084909 -20.478758 1.961617 -5.525304 -63.612013 -2.528551 9.482368 7.354812 -28.296076 19.757425 0.887995 0.907771 -0.834603 18.590357 -2.279650 3.334489 63.608671 4.658446 13.492877 -14.519897 29.090736 4.055337 -20.664351 -1.791605 2.276676 
-1.439622 0.289897 0.979909 123.037371 -2.759068 89.596227 -0.300047 -8.422380 -2.980827 -2.867349 -15.027995 6.923947 1.802415 3.843404 -12.836622 0.000000 -0.000000 0.000000 -6.111547 -11.278359 -0.786111 -2.815464 -13.096047 17.141856 3.401823 -15.996697 -16.882051 0.000000 -0.000000 0.000000 0.925047 9.925665 4.553766 -2.831953 4.010245 1.968225 1.123510 2.964401 0.975841 -6.982347 37.257297 -5.792569 -5.251682 28.546822 4.203702 -20.502804 1.960592 -5.394123 -63.587877 -2.700229 9.631983 7.432850 -28.122152 19.519277 1.058216 0.958521 -0.712720 19.016014 -2.449633 3.030883 63.158070 4.544724 13.567830 -14.377900 29.101151 3.932633 -20.858438 -1.636905 2.484517 
-1.439161 0.289759 0.979801 122.958458 -2.760323 89.558224 -0.307176 -8.448513 -2.965328 -2.866305 -15.012545 7.021765 1.802240 3.928428 -12.899766 0.000000 -0.000000 0.000000 -6.113604 -11.226537 -0.761807 -2.810013 -13.069540 17.179546 3.434167 -16.007072 -16.905822 0.000000 -0.000000 0.000000 0.857630 9.906933 4.561519 -2.800849 3.983035 2.002562 1.115180 2.989488 0.987218 -6.892434 37.397588 -5.824157 -5.285239 28.471665 4.244913 -20.452331 1.944386 -5.329900 -63.612270 -2.794207 9.721402 7.430425 -28.107424 19.386069 1.248162 0.984881 -0.808025 19.223075 -2.504264 2.974919 63.049532 4.583512 13.627522 -14.345981 29.091982 3.896647 -21.112569 -1.498595 2.769010 
-1.438672 0.289578 0.979668 122.892949 -2.748980 89.511873 -0.298220 -8.500007 -2.932096 -2.859284 -14.925780 7.125510 1.831025 3.955485 -13.000849 0.000000 -0.000000 0.000000 -6.093373 -11.134806 -0.745830 -2.829684 -13.114344 17.276943 3.451786 -15.993976 -16.961935 0.000000 -0.000000 0.000000 0.751644 9.935841 4.543400 -2.760266 3.991292 2.076022 1.101113 3.028480 0.982514 -6.730126 37.540209 -5.825589 -5.304892 28.371323 4.300892 -20.361095 1.900884 -5.302803 -63.667329 -2.885437 9.884143 7.520056 -28.141124 19.336657 1.131418 0.945731 -0.898018 19.341982 -2.517798 2.909195 63.217839 4.531565 13.835538 -14.361058 29.097479 3.842225 -20.485999 -1.723415 2.098104 
-1.438037 0.289459 0.979594 122.874355 -2.725765 89.451679 -0.270575 -8.475514 -2.823224 -2.841566 -14.913304 7.100002 1.852792 3.934528 -13.036680 0.000000 -0.000000 0.000000 -6.068037 -11.136983 -0.649822 -2.837349 -13.131035 17.259307 3.479370 -15.957457 -16.987263 0.000000 -0.000000 0.000000 0.690238 9.957693 4.495190 -2.740879 3.977565 2.153952 1.071664 3.073561 1.001124 -6.563839 37.644995 -5.844984 -5.298027 28.316043 4.406231 -20.248067 1.932508 -5.339807 -63.776498 -2.994869 9.961870 7.595217 -28.123746 19.417495 1.057685 0.856926 -0.863379 19.373912 -2.502811 2.810101 63.516209 4.459208 14.057729 -14.401080 28.986459 3.925936 -20.023601 -1.723926 1.852410 
